<?xml version="1.0" encoding="UTF-8"?>
<svg width="100" height="100" version="1.1" viewBox="0 0 100 100" xmlns="http://www.w3.org/2000/svg">
 <rect width="100" height="100" fill="#f5f5f5"/>
 <g transform="matrix(4.1667 0 0 4.1667 8.3333 8.3333)">
  <path d="m10 2.5a7.5 7.5 0 0 0-7.5 7.5 7.5 7.5 0 0 0 7.5 7.5 7.5 7.5 0 0 0 7.5-7.5 7.5 7.5 0 0 0-7.5-7.5zm0.9375 3.75 0.88867 0.88867-3.5754 3.5754 3.5754 3.5754-0.88867 0.88867-3.5754-3.5754-3.5754 3.5754-0.88867-0.88867 3.5754-3.5754-3.5754-3.5754 0.88867-0.88867 3.5754 3.5754 3.5754-3.5754z" fill="#999"/>
 </g>
</svg>
